<?xml version="1.0" ?><svg enable-background="new 0 0 512 512" id="Layer_1" version="1.1" viewBox="0 0 512 512" xml:space="preserve" xmlns="http://www.w3.org/2000/svg" xmlns:xlink="http://www.w3.org/1999/xlink"><g><g><linearGradient gradientUnits="userSpaceOnUse" id="SVGID_1_" x1="0.0000038" x2="512" y1="256" y2="256"><stop offset="0" style="stop-color:#8DC63F"/><stop offset="1" style="stop-color:#76B83F"/></linearGradient><circle cx="256" cy="256" fill="url(#SVGID_1_)" r="256"/><linearGradient gradientUnits="userSpaceOnUse" id="SVGID_2_" x1="42.6666679" x2="469.3333435" y1="256.0005188" y2="256.0005188"><stop offset="0" style="stop-color:#76B83F"/><stop offset="1" style="stop-color:#8DC63F"/></linearGradient><path d="M256,469.3338623c-117.6314697,0-213.3333282-95.7018738-213.3333282-213.3333435    S138.3685303,42.6671982,256,42.6671982c117.6357422,0,213.3333435,95.7018661,213.3333435,213.333313    S373.6357422,469.3338623,256,469.3338623z" fill="url(#SVGID_2_)"/></g><g><rect height="9.5994663" opacity="0.3" width="96.5109329" x="184.5493317" y="226.9951935"/><path d="M373.8122559,344.7359924l-67.1040039-69.3125305    c7.4400024-13.4394531,11.184021-28.5594635,11.184021-43.6314697c0-22.4639893-8.256012-44.9279938-24.8160095-62.0159912    C276.9962769,153.1679993,255.5882721,144,232.788269,144c-22.7519989,0-44.1600037,9.1679993-60.2400055,25.776001    c-33.1199951,34.1759949-33.1199951,89.8559875,0,124.0320129c16.0800018,16.6080017,37.4880066,25.776001,60.2400055,25.776001    c15.071991,0,29.519989-3.9840088,42.2399902-11.5200195l66.9120178,69.1194763    C346.1642761,381.5994568,351.8282776,384,357.8762512,384c6.0480042,0,11.6640015-2.4005432,15.9360046-6.8165283    C382.4522705,368.256012,382.4522705,353.6640015,373.8122559,344.7359924z M232.7989349,303.0778809    c-37.9406891,0-68.8106689-31.9786682-68.8106689-71.2869415c0-39.3061371,30.8699799-71.2848053,68.8106689-71.2848053    c37.9434662,0,68.8133392,31.9786682,68.8133392,71.2848053    C301.6122742,271.0992126,270.7424011,303.0778809,232.7989349,303.0778809z" opacity="0.3"/></g><g><rect fill="#FFFFFF" height="9.5994663" width="96.5109329" x="176.5493317" y="218.9951935"/><path d="M365.8122559,336.7359924l-67.1040039-69.3125305    c7.4400024-13.4394684,11.184021-28.5594635,11.184021-43.6314697c0-22.4639893-8.256012-44.9279938-24.8160095-62.0159912    C268.9962769,145.1679993,247.5882721,136,224.788269,136c-22.7519989,0-44.1600037,9.1679993-60.2400055,25.776001    c-33.1199951,34.1759949-33.1199951,89.8560028,0,124.0320129c16.0800018,16.6080017,37.4880066,25.776001,60.2400055,25.776001    c15.071991,0,29.5200043-3.9840088,42.2399902-11.5200195l66.9120178,69.1194763    C338.1642761,373.5994568,343.8282776,376,349.8762512,376c6.0480042,0,11.6640015-2.4005432,15.9360046-6.8165283    C374.4522705,360.256012,374.4522705,345.6640015,365.8122559,336.7359924z M224.7989349,295.0778809    c-37.9406891,0-68.8106689-31.9786682-68.8106689-71.2869415c0-39.3061371,30.8699799-71.2848053,68.8106689-71.2848053    c37.9434662,0,68.8133392,31.9786682,68.8133392,71.2848053    C293.6122742,263.0992126,262.7424011,295.0778809,224.7989349,295.0778809z" fill="#FFFFFF"/></g></g></svg>